<?xml version="1.0" encoding="UTF-8"?>
<svg id="Camada_1" data-name="Camada 1" xmlns="http://www.w3.org/2000/svg" viewBox="0 0 40 40">
  <path d="M16.52,16.52c.33,0,.66,0,.99,0v-1.99h.99v-1.99h.99v-1.99h.99v-1.99h.99v-1.99h.99v-2.98h.99v-.99h1.99v.99h.99v.99h-.99v1.99h-.99v1.99h-.99v1.99h-.99c0,.66,0,1.33,0,1.99-.33,0-.66,0-.99,0v.99h-.99v1.99h-.99v1.99h-.99v1.99h-.99v1.99h-.99v1.99h-.99v.99h2.98v-.99h3.98v-.99h.99v-1.99h-.99v-.99h-1.99v.99h-.99v-1.99h.99v-1.99h.99v-1.99h.99c0-.66,0-1.33,0-1.99,1.32-.02,2.65.01,3.98,0v.99h.99v.99h1.99v.99h1.99v.99h2.98v.99h1.99v2.98h-.99v3.98h-.99v.99h-.99v.99h-2.98v.99H13.54v1.99h-.99v.99h-.99v.99c-.33,0-.66,0-.99,0,0,.33,0,.66,0,.99h.99v2.98h-.99v.99h-1.99v.99H3.6v-.99h.99v-.99h.99v-1.99h.99v-.99h.99v-.99c.99,0,1.99.01,2.98,0-.01-.99,0-1.99,0-2.98h.99v-1.99h.99c0-.66,0-1.33,0-1.99.33,0,.66,0,.99,0,0-.66,0-1.33,0-1.99.33,0,.66,0,.99,0,0-.66,0-1.33,0-1.99.33,0,.66,0,.99,0,0-.66,0-1.33,0-1.99.33,0,.66,0,.99,0,0-.66,0-1.33,0-1.99Z"/>
  <path d="M12.55,24.47c-.33,0-.66,0-.99,0v.99h-1.99v-1.99h.99v-5.96h.99v-1.99h.99v-.99h.99v-.99h2.98c0,.99,0,1.99,0,2.98-.33,0-.66,0-.99,0,0,.66,0,1.33,0,1.99-.33,0-.66,0-.99,0,0,.66,0,1.33,0,1.99-.33,0-.66,0-.99,0,0,.66,0,1.33,0,1.99-.33,0-.66,0-.99,0,0,.66,0,1.33,0,1.99Z"/>
</svg>