<?xml version="1.0" encoding="UTF-8"?>
<svg id="Camada_1" data-name="Camada 1" xmlns="http://www.w3.org/2000/svg" viewBox="0 0 40 40">
  <polygon points="12.64 6.75 12.64 7.73 14.6 7.73 14.6 8.71 16.56 8.71 16.56 9.69 17.55 9.69 17.55 10.67 18.53 10.67 18.53 12.64 19.51 12.64 19.51 31.29 17.55 31.29 17.55 30.31 15.58 30.31 15.58 29.33 13.62 29.33 13.62 28.35 7.73 28.35 7.73 27.36 6.75 27.36 6.75 6.75 12.64 6.75"/>
  <polygon points="33.25 6.75 33.25 27.36 32.27 27.36 32.27 28.35 26.38 28.35 26.38 29.33 24.42 29.33 24.42 30.31 22.45 30.31 22.45 31.29 20.49 31.29 20.49 12.64 21.47 12.64 21.47 10.67 22.45 10.67 22.45 9.69 23.44 9.69 23.44 8.71 25.4 8.71 25.4 7.73 27.36 7.73 27.36 6.75 33.25 6.75"/>
  <polygon points="4.78 10.67 4.78 29.33 5.76 29.33 5.76 30.31 13.62 30.31 13.62 31.29 15.58 31.29 15.58 32.27 16.56 32.27 16.56 33.25 14.6 33.25 14.6 32.27 8.71 32.27 8.71 33.25 2.82 33.25 2.82 11.65 3.8 11.65 3.8 10.67 4.78 10.67"/>
  <polygon points="35.22 10.67 36.2 10.67 36.2 11.65 37.18 11.65 37.18 33.25 31.29 33.25 31.29 32.27 25.4 32.27 25.4 33.25 23.44 33.25 23.44 32.27 24.42 32.27 24.42 31.29 26.38 31.29 26.38 30.31 34.24 30.31 34.24 29.33 35.22 29.33 35.22 10.67"/>
</svg>