<?xml version="1.0" encoding="UTF-8"?>
<svg id="Camada_1" data-name="Camada 1" xmlns="http://www.w3.org/2000/svg" viewBox="0 0 40 40">
  <polygon points="38.05 1.43 38.05 6.59 34.96 6.59 34.96 9.68 33.93 9.68 33.93 10.71 30.83 10.71 30.83 13.81 27.74 13.81 27.74 16.9 22.58 16.9 22.58 14.84 25.67 14.84 25.67 11.75 28.77 11.75 28.77 8.65 29.8 8.65 29.8 7.62 31.86 7.62 31.86 5.56 32.9 5.56 32.9 4.52 35.99 4.52 35.99 1.43 38.05 1.43"/>
  <polygon points="23.61 2.46 23.61 8.65 22.58 8.65 22.58 10.71 21.55 10.71 21.55 12.78 20.52 12.78 20.52 13.81 18.45 13.81 18.45 11.75 19.48 11.75 19.48 9.68 20.52 9.68 20.52 7.62 21.55 7.62 21.55 2.46 23.61 2.46"/>
  <polygon points="38.05 16.9 38.05 18.97 31.86 18.97 31.86 20 29.8 20 29.8 21.03 28.77 21.03 28.77 22.06 26.71 22.06 26.71 20 27.74 20 27.74 18.97 28.77 18.97 28.77 17.94 30.83 17.94 30.83 16.9 38.05 16.9"/>
  <path d="M27.74,27.22v-1.03h-1.03v-1.03h-1.03v-1.03h-1.03v-1.03h-1.03v-1.03h-1.03v-1.03h-1.03v-1.03h-1.03v-1.03h-1.03v-1.03h-1.03v-1.03h-1.03v-1.03h-1.03v-1.03h-1.03v-1.03h-1.03v-1.03h-1.03v-1.03h-2.06v2.06h-1.03v3.1h-1.03v2.06h-1.03v3.1h-1.03v3.1h-1.03v2.06h-1.03v3.1h-1.03v3.1h-1.03v3.1h-1.03v2.06h3.1v-1.03h2.06v-1.03h3.1v-1.03h2.06v-1.03h3.1v-1.03h3.1v-1.03h2.06v-1.03h3.1v-1.03h3.1v-1.03h2.06v-2.06h-1.03ZM9.17,34.44h-2.06v-1.03h-1.03v-2.06h1.03v-1.03h1.03v2.06h1.03v2.06ZM16.39,31.35h-3.1v-1.03h-1.03v-2.06h-1.03v-2.06h-1.03v-6.19h1.03v2.06h1.03v3.1h1.03v2.06h1.03v2.06h1.03v1.03h1.03v1.03ZM22.58,29.29h-2.06v-1.03h-1.03v-2.06h-1.03v-3.1h-1.03v-3.1h1.03v1.03h1.03v2.06h1.03v2.06h1.03v2.06h1.03v2.06Z"/>
</svg>