<?xml version="1.0" encoding="UTF-8"?>
<svg id="Camada_1" data-name="Camada 1" xmlns="http://www.w3.org/2000/svg" viewBox="0 0 40 40">
  <path d="M37.05,18.45v-1.03h-1.03v-2.07h-2.07v-1.03h-1.03v-1.03h-2.07v-1.03h-3.1v-1.03h-8.27v1.03h-3.1v1.03h-2.07v1.03h-2.07v1.03h-1.03v1.03h-2.07v-1.03h-2.07v-1.03h-1.03v-1.03h-2.07v-1.03H1.92v3.1h1.03v2.07h1.03v5.17h-1.03v2.07h-1.03v3.1h1.03v-1.03h3.1v-1.03h1.03v-1.03h2.07v-1.03h2.07v1.03h2.07v1.03h1.03v1.03h2.07v1.03h3.1v1.03h8.27v-1.03h3.1v-1.03h2.07v-1.03h1.03v-1.03h1.03v-1.03h1.03v-1.03h1.03v-1.03h1.03v-3.1h-1.03ZM32.91,19.48h-3.1v-2.07h1.03v-1.03h1.03v1.03h1.03v2.07Z"/>
</svg>